<?xml version="1.0" encoding="utf-8"?>
<!-- Generator: Adobe Illustrator 17.1.0, SVG Export Plug-In . SVG Version: 6.00 Build 0)  -->
<!DOCTYPE svg PUBLIC "-//W3C//DTD SVG 1.1//EN" "http://www.w3.org/Graphics/SVG/1.1/DTD/svg11.dtd">
<svg version="1.1" id="图层_1" xmlns="http://www.w3.org/2000/svg" xmlns:xlink="http://www.w3.org/1999/xlink" x="0px" y="0px"
	 viewBox="0 0 40 40" enable-background="new 0 0 40 40" xml:space="preserve">
<g>
	<path fill="#49CC90" d="M19.7,16c-3.2,0-5.9,2.6-5.9,5.9s2.6,5.9,5.9,5.9s5.9-2.6,5.9-5.9S22.9,16,19.7,16z M19.7,26
		c-2.3,0-4.1-1.9-4.1-4.1s1.9-4.1,4.1-4.1s4.1,1.9,4.1,4.1S22,26,19.7,26z"/>
	<path fill="#49CC90" d="M20,13.1c-7.7,0-13.6,9.8-13.6,14.7c0,1.9,0.4,3.8,3,4.5c2,0.6,5.1,0.6,10.5,0.6l0.1-0.9l0.1,0.9h0.1
		c10.3,0,13.4,0,13.4-5.1C33.6,22.9,27.7,13.1,20,13.1z M20.2,31.2h-0.3c-4.9,0-8.2,0-9.9-0.5c-1.2-0.4-1.7-0.8-1.7-2.8
		c0-4.3,5.5-13,11.8-13c6.3,0,11.8,8.7,11.8,13C31.9,31,31.1,31.2,20.2,31.2z"/>
	<path fill="#49CC90" d="M34.8,12.3C32.6,8.8,27.6,7.1,20,7.1c-10.1,0-13.8,3.3-15.2,6c-1.1,2.3-0.7,4.7-0.2,5.4
		C5.2,19.3,6,19.8,7,19.8c1.1,0,2.2-0.6,2.5-1.3c1.6-2.6,5.1-6.9,10.5-6.9c4.7,0,8.5,3.7,10.4,6.9c0.6,1,1.5,1.6,2.5,1.6
		c1,0,2-0.6,2.6-1.6C35.9,17.4,36.3,14.8,34.8,12.3z M33.9,17.5c-0.5,0.9-1.5,0.9-2.1,0c-2.1-3.6-6.4-7.8-11.9-7.8
		c-6.2,0-10.2,4.9-12,7.9C7.9,17.7,7.5,18,7,18c-0.4,0-0.7-0.2-0.9-0.5c-0.1-0.2-0.6-2.1,0.6-4.1c1.2-2.1,4.6-4.6,13.4-4.6
		c8.7,0,12,2.4,13.3,4.4C34.5,15.3,34.1,17.3,33.9,17.5z"/>
</g>
</svg>
